<?xml version="1.0" encoding="iso-8859-1"?>
<!-- Generator: Adobe Illustrator 19.0.0, SVG Export Plug-In . SVG Version: 6.00 Build 0)  -->
<svg version="1.1" id="Layer_1" xmlns="http://www.w3.org/2000/svg" xmlns:xlink="http://www.w3.org/1999/xlink" x="0px" y="0px"
	 viewBox="0 0 321.926 321.926" style="enable-background:new 0 0 321.926 321.926;" xml:space="preserve">
<g transform="translate(0 -562.36)">
	<g>
		<g>
			<path d="M217,586.885h-97.8l0-0.1c-6.3,0-11.6,3.7-13.7,9.5l-37.8,115c-7.4-5.8-16.3-8.9-25.7-8.9c-23.1,0-42,18.9-42,42
				s18.9,42,42,42c23.1,0,36.2-18.4,41.5-34.1l45.7-137.6h68.3l-32,96.6c-6.8-5.8-15.8-8.9-25.2-8.9c-23.1,0-42,18.9-42,42
				s18.9,42,42,42c23.1-0.5,35.7-18.4,41-34.1l49.4-147C233.3,596.385,227,586.885,217,586.885z M42,758.485
				c-7.9,0-14.2-6.3-14.2-14.2s6.3-14.2,14.2-14.2c7.9,0,14.2,6.3,14.2,14.2S49.9,758.485,42,758.485z M140.2,758.485
				c-7.9,0-14.2-6.3-14.2-14.2s6.4-14.2,14.2-14.2c7.9,0,13.7,6.3,13.7,14.2S148.1,758.485,140.2,758.485z"/>
			<path d="M321.9,796.785c0-7.9-6.3-14.2-14.2-14.2H273v-34.7c0.1-7.8-6.2-14.1-14.1-14.1c-7.9,0-14.2,6.3-13.7,14.2v34.7H210
				c-18.9,0-18.9,28.3,0,28.3h35.2v34.7c-0.5,18.9,28.4,18.9,27.8,0v-34.7h34.7C315.6,810.985,322.4,804.685,321.9,796.785z"/>
			<polygon points="258.9,733.785 258.9,733.785 258.9,733.785 			"/>
		</g>
	</g>
</g>
<g>
</g>
<g>
</g>
<g>
</g>
<g>
</g>
<g>
</g>
<g>
</g>
<g>
</g>
<g>
</g>
<g>
</g>
<g>
</g>
<g>
</g>
<g>
</g>
<g>
</g>
<g>
</g>
<g>
</g>
</svg>
